<mxfile host="app.diagrams.net" modified="2023-10-01T12:11:26.973Z" agent="Mozilla/5.0 (Windows NT 10.0; Win64; x64) AppleWebKit/537.36 (KHTML, like Gecko) Chrome/117.0.0.0 Safari/537.36" version="22.0.0" etag="QIcR-xE8ITfXIKRgjyny" type="github">
  <diagram name="Strona-1" id="eArX4LRmvcnf2r4YsvMJ">
    <mxGraphModel>
      <root>
        <mxCell id="0" />
        <mxCell id="1" parent="0" />
      </root>
    </mxGraphModel>
  </diagram>
</mxfile>
